<svg width="12" height="12" viewBox="0 0 12 12" fill="none" xmlns="http://www.w3.org/2000/svg">
<path d="M4.2 4.86C4.2 4.66118 4.36118 4.5 4.56 4.5H5.1C5.29883 4.5 5.46 4.66118 5.46 4.86V5.4C5.46 5.59882 5.29883 5.76 5.1 5.76H4.56C4.36118 5.76 4.2 5.59882 4.2 5.4V4.86Z" fill="#1F1F1F"/>
<path d="M4.56 6.48001C4.36118 6.48001 4.2 6.64119 4.2 6.84001V7.38001C4.2 7.57883 4.36118 7.74001 4.56 7.74001H5.1C5.29883 7.74001 5.46 7.57883 5.46 7.38001V6.84001C5.46 6.64119 5.29883 6.48001 5.1 6.48001H4.56Z" fill="#1F1F1F"/>
<path d="M4.2 9.00001C4.2 8.80119 4.36118 8.64001 4.56 8.64001H5.1C5.29883 8.64001 5.46 8.80119 5.46 9.00001V9.54001C5.46 9.73884 5.29883 9.90001 5.1 9.90001H4.56C4.36118 9.90001 4.2 9.73884 4.2 9.54001V9.00001Z" fill="#1F1F1F"/>
<path d="M2.21999 6.48001C2.02116 6.48001 1.85999 6.64119 1.85999 6.84001V7.38001C1.85999 7.57883 2.02116 7.74001 2.21999 7.74001H2.75999C2.95881 7.74001 3.11999 7.57883 3.11999 7.38001V6.84001C3.11999 6.64119 2.95881 6.48001 2.75999 6.48001H2.21999Z" fill="#1F1F1F"/>
<path d="M1.85999 9.00001C1.85999 8.80119 2.02116 8.64001 2.21999 8.64001H2.75999C2.95881 8.64001 3.11999 8.80119 3.11999 9.00001V9.54001C3.11999 9.73884 2.95881 9.90001 2.75999 9.90001H2.21999C2.02116 9.90001 1.85999 9.73884 1.85999 9.54001V9.00001Z" fill="#1F1F1F"/>
<path d="M6.9 4.5C6.70118 4.5 6.54 4.66118 6.54 4.86V5.4C6.54 5.59882 6.70118 5.76 6.9 5.76H7.44C7.63882 5.76 7.8 5.59882 7.8 5.4V4.86C7.8 4.66118 7.63882 4.5 7.44 4.5H6.9Z" fill="#1F1F1F"/>
<path d="M6.2124 6.69959C6.2124 6.39738 6.45739 6.15239 6.7596 6.15239H7.5804C7.88261 6.15239 8.1276 6.39738 8.1276 6.69959V7.52039C8.1276 7.8226 7.88261 8.06759 7.5804 8.06759H6.7596C6.45739 8.06759 6.2124 7.8226 6.2124 7.52039V6.69959Z" fill="#1F1F1F"/>
<path d="M6.9 8.64001C6.70118 8.64001 6.54 8.80119 6.54 9.00001V9.54001C6.54 9.73884 6.70118 9.90001 6.9 9.90001H7.44C7.63882 9.90001 7.8 9.73884 7.8 9.54001V9.00001C7.8 8.80119 7.63882 8.64001 7.44 8.64001H6.9Z" fill="#1F1F1F"/>
<path d="M8.88 4.86C8.88 4.66118 9.04117 4.5 9.24 4.5H9.78C9.97882 4.5 10.14 4.66118 10.14 4.86V5.4C10.14 5.59882 9.97882 5.76 9.78 5.76H9.24C9.04117 5.76 8.88 5.59882 8.88 5.4V4.86Z" fill="#1F1F1F"/>
<path d="M9.24 6.48001C9.04117 6.48001 8.88 6.64119 8.88 6.84001V7.38001C8.88 7.57883 9.04117 7.74001 9.24 7.74001H9.78C9.97882 7.74001 10.14 7.57883 10.14 7.38001V6.84001C10.14 6.64119 9.97882 6.48001 9.78 6.48001H9.24Z" fill="#1F1F1F"/>
<path fill-rule="evenodd" clip-rule="evenodd" d="M0 1.8075C0 0.912799 0.725299 0.1875 1.62 0.1875H10.38C11.2747 0.1875 12 0.912799 12 1.8075V10.1925C12 11.0872 11.2747 11.8125 10.38 11.8125H1.62C0.725299 11.8125 0 11.0872 0 10.1925V1.8075ZM1.62 1.0875H10.38C10.7776 1.0875 11.1 1.40985 11.1 1.8075V2.79339C10.8831 2.68561 10.6386 2.625 10.38 2.625H1.62C1.36137 2.625 1.11689 2.68561 0.9 2.79339V1.8075C0.9 1.40986 1.22235 1.0875 1.62 1.0875ZM0.9 4.245V10.185C0.9 10.5826 1.22236 10.905 1.62 10.905H10.38C10.7776 10.905 11.1 10.5826 11.1 10.185V4.245C11.1 3.84735 10.7776 3.525 10.38 3.525H1.62C1.22236 3.525 0.9 3.84736 0.9 4.245Z" fill="#1F1F1F"/>
</svg>
