<svg width="19" height="18" viewBox="0 0 19 18" fill="none" xmlns="http://www.w3.org/2000/svg">
<path d="M8.33054 0.740369C8.79084 -0.24679 10.2092 -0.246789 10.6695 0.74037L12.5013 4.66889C12.6889 5.07122 13.0743 5.34823 13.5191 5.4004L17.8622 5.90978C18.9535 6.03778 19.3918 7.37211 18.585 8.11021L15.374 11.0476C15.0452 11.3484 14.8979 11.7966 14.9852 12.2312L15.8376 16.4745C16.0518 17.5408 14.9043 18.3654 13.9454 17.8344L10.129 15.7213C9.73821 15.5049 9.26178 15.5049 8.87095 15.7213L5.05464 17.8344C4.09568 18.3654 2.94824 17.5408 3.16242 16.4745L4.01477 12.2312C4.10206 11.7966 3.95483 11.3484 3.62599 11.0476L0.415035 8.11021C-0.391815 7.37211 0.0464696 6.03778 1.1378 5.90978L5.48089 5.4004C5.92567 5.34823 6.31111 5.07122 6.49871 4.66889L8.33054 0.740369Z" fill="#FFCC00"/>
</svg>
