<svg width="76" height="77" viewBox="0 0 76 77" fill="none" xmlns="http://www.w3.org/2000/svg">
<path d="M1.1035 74.2217C5.26643 70.6113 3.74561 64.4344 1.18084 60.4651C1.05257 60.3447 0.965601 60.197 0.92927 60.038C0.892941 59.879 0.908619 59.7146 0.974623 59.5625C1.00118 59.4805 1.03567 59.4005 1.07773 59.3233C1.2341 59.0911 1.47959 58.9108 1.7737 58.8122C1.95897 58.7448 2.16155 58.7184 2.36227 58.7355C2.563 58.7527 2.75522 58.8127 2.92076 58.91C8.20497 61.085 14.7007 61.6287 20.1009 59.4429C20.3459 59.3233 20.6309 59.2751 20.9116 59.3057C21.1924 59.3363 21.4534 59.4441 21.6543 59.6124C21.8552 59.7807 21.9849 60.0001 22.0233 60.2368C22.0616 60.4735 22.0066 60.7142 21.8666 60.9219C20.1911 63.4666 18.9023 66.3049 19.4565 69.252C19.8431 71.3073 20.9515 73.2104 21.3382 75.2657C21.4034 75.4971 21.3813 75.7399 21.275 75.9602C21.1687 76.1806 20.9835 76.3674 20.7453 76.4946C20.0236 76.8752 19.1343 76.4076 18.4512 76.1901C17.1345 75.7469 15.7821 75.3835 14.4043 75.1026C10.4827 74.1896 6.30449 74.4785 2.61144 75.9182C2.3447 76.0186 2.04549 76.0395 1.76281 75.9776C1.48013 75.9157 1.23074 75.7746 1.05551 75.5775C0.880285 75.3803 0.789602 75.1388 0.798323 74.8925C0.807041 74.6462 0.914644 74.4097 1.1035 74.2217ZM20.2556 74.3957C20.6035 74.5588 20.5649 74.2761 20.1009 74.3957H20.2556Z" fill="#6060F0"/>
<path d="M53.9252 52.4221C53.4545 52.4218 52.9984 52.2843 52.6341 52.0329C52.4166 51.8831 52.2388 51.6966 52.1119 51.4854C50.9627 49.4767 49.9693 47.4072 49.1381 45.2899C46.4622 38.9411 43.9373 32.9426 32.743 29.1184C32.3801 28.9944 32.0674 28.7845 31.8427 28.5141C31.6179 28.2438 31.4906 27.9244 31.476 27.5944C31.4614 27.2644 31.5603 26.9379 31.7606 26.6542C31.9609 26.3705 32.2541 26.1416 32.605 25.9951C40.8182 22.571 47.9242 13.1298 51.1537 1.35627C51.2575 0.97927 51.5096 0.642996 51.8689 0.402218C52.2282 0.161439 52.6736 0.030345 53.1326 0.0302734H53.1675C53.6326 0.0366442 54.0809 0.177534 54.4374 0.429364C54.794 0.681195 55.0371 1.02868 55.1261 1.41362C57.1472 10.1136 63.8155 23.9171 73.0991 23.9171C73.5644 23.9171 74.0157 24.052 74.3772 24.299C74.7387 24.546 74.9887 24.8903 75.0852 25.2741C75.1817 25.658 75.1189 26.0581 74.9073 26.4076C74.6957 26.7571 74.3482 27.0347 73.9229 27.1939C68.9068 29.075 61.7613 34.6097 56.2184 50.3005C55.8174 51.4404 55.595 52.0685 54.5209 52.3461C54.3281 52.3966 54.1272 52.4223 53.9252 52.4221ZM37.8169 27.3335C47.7625 31.7888 50.5118 38.3162 52.9652 44.1439C53.2006 44.7008 53.4322 45.2513 53.6658 45.7915C58.0097 35.1346 63.2382 29.4076 67.8449 26.3478C60.6495 23.5409 55.7475 15.2984 53.0461 8.22833C49.5886 16.723 44.2076 23.4862 37.8169 27.3335Z" fill="#1F1F1F"/>
</svg>
