<svg width="18" height="18" viewBox="0 0 18 18" fill="none" xmlns="http://www.w3.org/2000/svg">
<path d="M17.0401 12.9429V15.3516C17.041 15.5752 16.9952 15.7965 16.9056 16.0014C16.816 16.2063 16.6846 16.3902 16.5199 16.5413C16.3551 16.6925 16.1606 16.8076 15.9488 16.8792C15.7369 16.9509 15.5125 16.9775 15.2898 16.9573C12.8192 16.6889 10.446 15.8447 8.36092 14.4925C6.42102 13.2598 4.77632 11.6151 3.54363 9.67521C2.18674 7.58066 1.34232 5.19593 1.07878 2.71423C1.05872 2.4922 1.08511 2.26844 1.15626 2.05717C1.22742 1.8459 1.34178 1.65177 1.49208 1.48712C1.64237 1.32247 1.82531 1.19093 2.02923 1.10085C2.23315 1.01078 2.45359 0.964155 2.67652 0.963945H5.08516C5.47481 0.96011 5.85255 1.09809 6.14799 1.35216C6.44342 1.60624 6.63639 1.95907 6.69093 2.3449C6.79259 3.11572 6.98113 3.87257 7.25294 4.601C7.36097 4.88837 7.38434 5.20068 7.32031 5.50093C7.25628 5.80118 7.10751 6.07678 6.89165 6.29508L5.87199 7.31474C7.01493 9.32479 8.67923 10.9891 10.6893 12.132L11.7089 11.1124C11.9272 10.8965 12.2028 10.7477 12.5031 10.6837C12.8033 10.6197 13.1156 10.6431 13.403 10.7511C14.1315 11.0229 14.8883 11.2114 15.6591 11.3131C16.0491 11.3681 16.4053 11.5646 16.6599 11.8651C16.9146 12.1656 17.0498 12.5492 17.0401 12.9429Z" stroke="#FF7221" stroke-width="1.5" stroke-linecap="round" stroke-linejoin="round"/>
</svg>
