<svg width="18" height="16" viewBox="0 0 18 16" fill="none" xmlns="http://www.w3.org/2000/svg">
<path d="M8.98779 10.7264L11.5814 13.6752C12.5414 14.7672 13.0222 15.3136 13.5254 15.18C14.0278 15.0472 14.2006 14.3288 14.5454 12.8912L16.4574 4.91683C16.9894 2.70243 17.255 1.59603 16.6646 1.04963C16.0742 0.503231 15.051 0.909631 13.0046 1.72163L3.51179 5.49203C1.87499 6.14243 1.05659 6.46723 1.00459 7.02563C0.998469 7.08253 0.998469 7.13993 1.00459 7.19683C1.05499 7.75603 1.87179 8.08323 3.50699 8.73843C4.24699 9.03523 4.61739 9.18403 4.88299 9.46803C4.91286 9.50003 4.94166 9.5331 4.96939 9.56723C5.21419 9.87123 5.31819 10.2712 5.52699 11.068L5.91819 12.5616C6.12059 13.3376 6.22219 13.7264 6.48859 13.7792C6.75499 13.832 6.98619 13.5104 7.44939 12.8664L8.98779 10.7264ZM8.98779 10.7264L8.73419 10.4624C8.44459 10.16 8.29979 10.0096 8.29979 9.82243C8.29979 9.63523 8.44379 9.48403 8.73419 9.18243L11.5926 6.20323" stroke="#FF7221" stroke-width="1.5" stroke-linecap="round" stroke-linejoin="round"/>
</svg>
