<svg width="10" height="14" viewBox="0 0 10 14" fill="none" xmlns="http://www.w3.org/2000/svg">
<path d="M3.55032 4.99895C3.26508 4.64579 3.51645 4.11965 3.97041 4.11965H6.02982C6.48379 4.11965 6.73516 4.64579 6.44991 4.99895L5.43 6.2617C5.32655 6.38978 5.27012 6.54945 5.27012 6.7141V9.03448C5.27012 9.22953 5.34925 9.41623 5.48942 9.55187L7.10114 11.1116C7.44993 11.4491 7.21098 12.0396 6.72561 12.0396H3.27463C2.78926 12.0396 2.55031 11.4491 2.8991 11.1116L4.51082 9.55187C4.65099 9.41623 4.73012 9.22953 4.73012 9.03448V6.7141C4.73012 6.54945 4.67369 6.38978 4.57024 6.2617L3.55032 4.99895Z" fill="#1F1F1F"/>
<path fill-rule="evenodd" clip-rule="evenodd" d="M2.00266 0.429688C1.24085 0.429688 0.530446 1.01366 0.557383 1.8551C0.585524 2.73415 0.764932 3.94146 1.40627 4.75771C1.94086 5.4381 2.55651 6.15321 3.02313 6.67892C3.18467 6.86092 3.18467 7.13846 3.02313 7.32046C2.55651 7.84617 1.94086 8.56128 1.40627 9.24167C0.764934 10.0579 0.585526 11.2652 0.557385 12.1443C0.530447 12.9857 1.24085 13.5697 2.00266 13.5697H7.99756C8.75937 13.5697 9.46978 12.9857 9.44284 12.1443C9.4147 11.2652 9.23529 10.0579 8.59396 9.24167C8.05936 8.56128 7.44371 7.84617 6.97709 7.32046C6.81555 7.13846 6.81555 6.86092 6.97709 6.67891C7.44371 6.15321 8.05936 5.4381 8.59395 4.75771C9.23529 3.94146 9.41469 2.73415 9.44284 1.8551C9.46977 1.01366 8.75937 0.429688 7.99756 0.429688H2.00266ZM1.45692 1.8263C1.44875 1.57116 1.66733 1.32969 2.00266 1.32969H7.99756C8.33289 1.32969 8.55146 1.57116 8.5433 1.8263C8.51643 2.66547 8.34096 3.62297 7.88627 4.20167C7.36721 4.86229 6.76461 5.56252 6.30399 6.08147C5.83991 6.60432 5.83992 7.39505 6.30399 7.9179C6.76461 8.43685 7.36721 9.13709 7.88627 9.79771C8.34096 10.3764 8.51643 11.3339 8.5433 12.1731C8.55147 12.4282 8.33289 12.6697 7.99756 12.6697H2.00266C1.66733 12.6697 1.44876 12.4282 1.45692 12.1731C1.48379 11.3339 1.65926 10.3764 2.11396 9.79771C2.63301 9.13709 3.23561 8.43685 3.69623 7.9179C4.16031 7.39505 4.16031 6.60433 3.69623 6.08148C3.23561 5.56252 2.63301 4.86229 2.11395 4.20167C1.65926 3.62297 1.48379 2.66547 1.45692 1.8263Z" fill="#1F1F1F"/>
</svg>
