<svg width="22" height="22" viewBox="0 0 22 22" fill="none" xmlns="http://www.w3.org/2000/svg">
<path d="M9.83218 7.03524C9.52991 7.27438 9.25424 7.6612 8.94445 8.27457C8.79922 8.56214 8.44836 8.67753 8.16079 8.53229C7.87321 8.38705 7.75783 8.03619 7.90307 7.74862C8.23727 7.08691 8.60557 6.51806 9.10828 6.12031C9.63134 5.70647 10.2486 5.51693 10.9997 5.51693C12.9668 5.51693 14.1589 7.09357 14.1589 8.64785C14.1589 9.22337 14.0444 9.72891 13.751 10.2114C13.4677 10.6772 13.0409 11.0821 12.4905 11.5024C11.9251 11.9342 11.583 12.5617 11.583 13.2192V13.3335C11.583 13.6557 11.3218 13.9169 10.9997 13.9169C10.6775 13.9169 10.4163 13.6557 10.4163 13.3335V13.2192C10.4163 12.1458 10.9722 11.1939 11.7825 10.5751C12.2894 10.188 12.5822 9.88785 12.7542 9.60517C12.9159 9.33925 12.9923 9.05304 12.9923 8.64785C12.9923 7.65453 12.2422 6.68359 10.9997 6.68359C10.4628 6.68359 10.1141 6.81218 9.83218 7.03524Z" fill="#DBDBDB"/>
<path d="M10.9997 16.7471C11.3863 16.7471 11.6997 16.4337 11.6997 16.0471C11.6997 15.6605 11.3863 15.3471 10.9997 15.3471C10.6131 15.3471 10.2997 15.6605 10.2997 16.0471C10.2997 16.4337 10.6131 16.7471 10.9997 16.7471Z" fill="#DBDBDB"/>
<path fill-rule="evenodd" clip-rule="evenodd" d="M0.756348 11.0002C0.756348 5.34293 5.34244 0.756836 10.9997 0.756836C16.6569 0.756836 21.243 5.34293 21.243 11.0002C21.243 16.6574 16.6569 21.2435 10.9997 21.2435C5.34244 21.2435 0.756348 16.6574 0.756348 11.0002ZM10.9997 1.9235C5.98678 1.9235 1.92301 5.98726 1.92301 11.0002C1.92301 16.0131 5.98678 20.0768 10.9997 20.0768C16.0126 20.0768 20.0763 16.0131 20.0763 11.0002C20.0763 5.98726 16.0126 1.9235 10.9997 1.9235Z" fill="#DBDBDB"/>
</svg>
