<svg width="16" height="16" viewBox="0 0 16 16" fill="none" xmlns="http://www.w3.org/2000/svg">
<path d="M8 0.5C12.1421 0.5 15.5 3.85786 15.5 8C15.5 12.1421 12.1421 15.5 8 15.5C3.85786 15.5 0.5 12.1421 0.5 8C0.5 3.85786 3.85786 0.5 8 0.5ZM8 1.25C4.27208 1.25 1.25 4.27208 1.25 8C1.25 11.7279 4.27208 14.75 8 14.75C11.7279 14.75 14.75 11.7279 14.75 8C14.75 4.27208 11.7279 1.25 8 1.25ZM9.22479 3.20374C9.29319 3.19181 9.36366 3.20251 9.42548 3.23413C9.48726 3.26576 9.53702 3.3167 9.56738 3.37915C9.59775 3.44161 9.60703 3.51221 9.59375 3.58038L9.00745 6.5152L11.3118 7.38C11.3612 7.39837 11.4053 7.42876 11.4402 7.46826C11.475 7.50775 11.4997 7.55523 11.5118 7.60651C11.5236 7.65759 11.5227 7.71093 11.5092 7.7616C11.4957 7.81224 11.4699 7.85874 11.4341 7.89709L6.95428 12.6998C6.90681 12.7505 6.84415 12.7843 6.77576 12.7963C6.70736 12.8082 6.63689 12.7975 6.57507 12.7659C6.51329 12.7342 6.46353 12.6833 6.43317 12.6208C6.4028 12.5584 6.39352 12.4878 6.4068 12.4196L6.99146 9.4881L4.68634 8.62311C4.63687 8.60458 4.59281 8.57404 4.55798 8.5343C4.52316 8.49456 4.49865 8.44683 4.48676 8.39532C4.47487 8.34379 4.47596 8.28998 4.48987 8.23895C4.50378 8.18797 4.53005 8.14124 4.56641 8.10291L9.04626 3.30023C9.09374 3.24954 9.1564 3.21567 9.22479 3.20374ZM5.36035 8.18842L7.47394 8.98291C7.54478 9.00986 7.60376 9.06117 7.64038 9.12756C7.67698 9.19394 7.68885 9.27115 7.67389 9.34546L7.25513 11.4418L10.6385 7.81158L8.52661 7.0191C8.45577 6.99216 8.39679 6.94085 8.36017 6.87445C8.32357 6.80808 8.3117 6.73087 8.32666 6.65656L8.74506 4.56018L5.36035 8.18842Z" fill="#1F1F1F"/>
</svg>
