<svg width="89" height="22" viewBox="0 0 89 22" fill="none" xmlns="http://www.w3.org/2000/svg">
<rect x="0.5" width="88" height="22" rx="5" fill="#EF3124"/>
<path d="M11.5 17.1757H20.216V18.9837H11.5V17.1757ZM74.532 11.3717L77.28 8.33973H75.232L72.98 10.8597V8.33973H71.348V14.7117H72.988V12.0277L75.396 14.7117H77.5L74.532 11.3717ZM21.176 11.7917C21.132 12.9917 20.98 13.2197 20.316 13.2197V14.7157H20.564C22.232 14.7157 22.628 13.8557 22.688 11.9397L22.76 9.81973H24.3V14.7117H25.932V8.33973H21.288L21.176 11.7917ZM14.092 12.8877H17.532L18.104 14.7117H20.012L17.44 7.04773C17.192 6.30773 16.904 5.71973 15.92 5.71973C14.936 5.71973 14.636 6.30773 14.372 7.04773L11.676 14.7117H13.468L14.092 12.8877V12.8877ZM15.836 7.71973H15.88L17.032 11.3517H14.608L15.836 7.71973ZM53.96 9.24373H52.14V7.44373H56.364V5.84373H50.428V14.7117H53.96C55.916 14.7117 57.04 13.7357 57.04 11.9517C57.04 10.2597 55.9 9.24373 53.96 9.24373V9.24373ZM53.876 13.1077H52.14V10.8037H53.876C54.78 10.8037 55.288 11.2037 55.288 11.9557C55.288 12.7077 54.78 13.1077 53.876 13.1077ZM37.736 8.19173V5.83173H36.108V8.19173C35.2532 8.21993 34.4444 8.58625 33.8594 9.21021C33.2745 9.83421 32.961 10.6648 32.988 11.5197C32.9589 12.3764 33.2712 13.2095 33.8563 13.8358C34.4414 14.4622 35.2514 14.8305 36.108 14.8597V17.2597H37.74V14.8597C38.1643 14.8458 38.5818 14.7483 38.9683 14.5728C39.3549 14.3973 39.7031 14.1472 39.9929 13.837C40.2827 13.5267 40.5085 13.1624 40.6573 12.7647C40.8061 12.3671 40.875 11.944 40.86 11.5197C40.8771 11.0952 40.8095 10.6714 40.6611 10.2733C40.5127 9.87517 40.2865 9.51057 39.9957 9.20077C39.7049 8.89101 39.3553 8.64221 38.9674 8.46897C38.5794 8.29573 38.1608 8.20149 37.736 8.19173V8.19173ZM36.112 13.3197C35.6801 13.2723 35.2841 13.057 35.0095 12.7202C34.7349 12.3835 34.6036 11.9524 34.644 11.5197C34.6088 11.0882 34.742 10.6597 35.0156 10.3242C35.2893 9.98865 35.6822 9.77205 36.112 9.71973V13.3197ZM37.744 13.3197V9.71973C38.1738 9.77205 38.5667 9.98865 38.8404 10.3242C39.114 10.6597 39.2472 11.0882 39.212 11.5197C39.2503 11.9519 39.1182 12.382 38.844 12.7182C38.5698 13.0545 38.1751 13.2703 37.744 13.3197ZM46.976 12.7557V10.6077C46.976 9.03973 45.98 8.05973 44.308 8.05973C42.636 8.05973 41.66 9.09973 41.58 10.1837H43.232C43.288 9.95173 43.536 9.53973 44.304 9.53973C44.4476 9.52125 44.5932 9.53637 44.7296 9.58397C44.8664 9.63157 44.99 9.71025 45.0908 9.81389C45.1916 9.91749 45.2672 10.0432 45.3112 10.1809C45.3552 10.3187 45.3664 10.4648 45.344 10.6077H43.744C42.296 10.6077 41.436 11.3717 41.436 12.6357C41.4247 12.9374 41.4769 13.238 41.5891 13.5182C41.7014 13.7984 41.8712 14.0519 42.0877 14.2623C42.3041 14.4727 42.5623 14.6353 42.8456 14.7396C43.1288 14.8439 43.4308 14.8875 43.732 14.8677C44.072 14.8856 44.4112 14.8194 44.7196 14.675C45.028 14.5306 45.296 14.3124 45.5 14.0397C45.6328 14.2643 45.8264 14.4466 46.0588 14.5656C46.2908 14.6845 46.552 14.7352 46.812 14.7117H47.376V13.2397C47.1 13.2397 46.976 13.1077 46.976 12.7557V12.7557ZM45.344 12.3557C45.3508 12.5133 45.324 12.6705 45.2652 12.8169C45.2068 12.9634 45.118 13.0958 45.0048 13.2054C44.8912 13.315 44.756 13.3993 44.6076 13.4528C44.4592 13.5063 44.3012 13.5277 44.144 13.5157C43.556 13.5157 43.092 13.3037 43.092 12.6677C43.092 12.0317 43.608 11.9397 44.044 11.9397H45.344V12.3557V12.3557ZM29.996 10.2757H28.824V8.33973H27.192V14.7117H30.024C31.796 14.7117 32.424 13.5597 32.424 12.4717C32.432 11.0677 31.552 10.2757 29.996 10.2757ZM29.876 13.3197H28.824V11.7197H29.876C30.44 11.7197 30.78 11.9757 30.78 12.5197C30.78 13.0637 30.456 13.3197 29.876 13.3197V13.3197ZM63.268 12.7557V10.6077C63.268 9.03973 62.272 8.05973 60.6 8.05973C58.928 8.05973 57.952 9.09973 57.872 10.1837H59.524C59.58 9.95173 59.828 9.53973 60.596 9.53973C60.7396 9.52125 60.8852 9.53637 61.0216 9.58397C61.1584 9.63157 61.282 9.71025 61.3828 9.81389C61.4836 9.91749 61.5592 10.0432 61.6032 10.1809C61.6472 10.3187 61.6584 10.4648 61.636 10.6077H60.036C58.588 10.6077 57.728 11.3717 57.728 12.6357C57.7168 12.9374 57.7688 13.238 57.8812 13.5182C57.9932 13.7984 58.1632 14.0519 58.3796 14.2623C58.596 14.4727 58.8544 14.6353 59.1376 14.7396C59.4208 14.8439 59.7228 14.8875 60.024 14.8677C60.3672 14.889 60.7104 14.8244 61.0228 14.6799C61.3348 14.5353 61.606 14.3153 61.812 14.0397C61.9428 14.2604 62.1328 14.4402 62.3604 14.5589C62.588 14.6776 62.844 14.7306 63.1 14.7117H63.664V13.2397C63.38 13.2397 63.268 13.1077 63.268 12.7557ZM61.644 12.3557C61.65 12.5131 61.6228 12.67 61.564 12.8162C61.5052 12.9623 61.4164 13.0944 61.3032 13.2039C61.19 13.3134 61.0548 13.3977 60.9068 13.4515C60.7588 13.5052 60.6012 13.5271 60.444 13.5157C59.856 13.5157 59.392 13.3037 59.392 12.6677C59.392 12.0317 59.908 11.9397 60.344 11.9397H61.644V12.3557V12.3557ZM68.48 10.7117H66.228V8.33973H64.596V14.7157H66.228V12.2037H68.48V14.7117H70.112V8.33973H68.48V10.7117Z" fill="white"/>
</svg>
