<svg width="80" height="22" viewBox="0 0 80 22" fill="none" xmlns="http://www.w3.org/2000/svg">
<rect width="79.75" height="22" rx="5.5" fill="black"/>
<g clip-path="url(#clip0_219_26651)">
<path d="M19.6387 6.875H18.1092V14.631H19.6387V6.875Z" fill="white"/>
<path d="M16.3523 7.309H14.8228V15.0648H16.3523V7.309Z" fill="white"/>
<path d="M13.0659 7.79352H11.5364V15.5508H13.0659V7.79352Z" fill="white"/>
<path d="M9.77948 8.28342H8.25L8.25001 16.0417H9.77949L9.77948 8.28342Z" fill="white"/>
<path d="M60.0359 11.0073L57.5732 8.26924H56.1335V14.6089H57.6367V10.5641L59.885 12.9605H60.1628L62.3725 10.5641V14.6089H63.8757V8.26924H62.436L60.0359 11.0073Z" fill="white"/>
<path d="M71.0371 8.26924L67.3113 12.3898V8.26924H65.8082V14.6089H67.1853L70.9111 10.4883V14.6089H72.4142V8.26924H71.0371Z" fill="white"/>
<path d="M48.037 10.589C48.037 11.5984 48.5889 12.3935 49.4362 12.7268L47.8474 14.6089H49.6873L51.1325 12.8968H52.6964V14.6089H54.1996V8.26924H50.3727C48.9459 8.26924 48.037 9.24535 48.037 10.589ZM52.6974 9.66553V11.5402H50.6514C49.9688 11.5402 49.6027 11.1597 49.6027 10.6019C49.6027 10.0441 49.9817 9.66368 50.6514 9.66368L52.6974 9.66553Z" fill="white"/>
<path d="M41.0518 9.53716C40.9598 11.7175 40.4998 13.1249 39.5992 13.1249H39.3738V14.6467L39.6139 14.6597C41.4197 14.7603 42.4179 13.1756 42.5816 9.71447H44.9569V14.6089H46.4573V8.26924H41.1024L41.0518 9.53716Z" fill="white"/>
<path d="M35.3933 8.18066C33.3602 8.18066 31.8975 9.58803 31.8975 11.4387C31.8975 13.353 33.489 14.7105 35.3933 14.7105C37.3767 14.7105 38.9176 13.2773 38.9176 11.4387C38.9176 9.60004 37.3767 8.18066 35.3933 8.18066ZM35.3933 13.1887C34.2443 13.1887 33.4614 12.4406 33.4614 11.4387C33.4614 10.4118 34.2452 9.68408 35.3933 9.68408C36.5414 9.68408 37.3509 10.445 37.3509 11.4387C37.3509 12.4323 36.5303 13.1887 35.3933 13.1887Z" fill="white"/>
<path d="M30.3033 8.2812H24.998L24.9474 9.54912C24.872 11.3758 24.3955 13.1128 23.4949 13.1377L23.0781 13.1507V16.0418L24.5942 16.0387V14.6097H29.8608V16.0387H31.3898V13.1377H30.3033V8.2812ZM28.8001 13.1377H25.5923C26.1351 12.314 26.4258 11.1218 26.4764 9.72735H28.8001V13.1377Z" fill="white"/>
</g>
<defs>
<clipPath id="clip0_219_26651">
<rect width="64.1667" height="9.16667" fill="white" transform="translate(8.25 6.875)"/>
</clipPath>
</defs>
</svg>
