<svg width="57" height="22" viewBox="0 0 57 22" fill="none" xmlns="http://www.w3.org/2000/svg">
<path d="M0.5 4C0.5 1.79086 2.29086 0 4.5 0H52.5C54.7091 0 56.5 1.79086 56.5 4V18C56.5 20.2091 54.7091 22 52.5 22H4.5C2.29086 22 0.5 20.2091 0.5 18V4Z" fill="#21A038"/>
<path d="M40.114 8.90727L41.6004 7.81205H36.6719V14.3052H41.6004V13.21H38.0801V11.5671H41.0528V10.4719H38.0801V8.90727H40.114ZM33.973 8.90727L35.4593 7.81205H29.8267V14.3052H32.7604C34.4032 14.3052 35.342 13.562 35.342 12.2712C35.342 11.0195 34.4815 10.3545 32.9168 10.3545H31.1958V8.90727H33.973ZM32.7213 11.4107C33.6209 11.4107 34.0121 11.7236 34.0121 12.3103C34.0121 12.897 33.5818 13.21 32.7213 13.21H31.2349V11.4107H32.7213ZM45.5511 7.81205H42.8912V14.3052H44.2994V12.4668H45.5902C47.3113 12.4668 48.3674 11.5671 48.3674 10.1198C48.3674 8.67258 47.2721 7.81205 45.5511 7.81205ZM45.5511 11.3715H44.2994V8.86816H45.5511C46.4507 8.86816 46.9592 9.29843 46.9592 10.1198C46.9201 10.9413 46.4507 11.3715 45.5511 11.3715ZM27.4407 12.897C27.0496 13.0926 26.6584 13.21 26.2281 13.21C24.9764 13.21 24.0377 12.3103 24.0377 11.0586C24.0377 9.80693 24.9373 8.90727 26.2281 8.90727C26.6975 8.90727 27.1278 9.06374 27.5189 9.29843L28.5359 8.55524L28.4577 8.47701C27.871 7.96851 27.0887 7.6947 26.189 7.6947C25.2111 7.6947 24.3506 8.00762 23.6856 8.63347C23.0598 9.25931 22.6686 10.1198 22.7078 11.0195C22.7078 11.9191 23.0598 12.7797 23.6856 13.4446C24.3506 14.0705 25.2503 14.4225 26.1499 14.3834C27.1669 14.3834 28.0274 14.0314 28.6533 13.4055L27.7536 12.7406L27.4407 12.897Z" fill="white"/>
<path fill-rule="evenodd" clip-rule="evenodd" d="M13.9723 5.58338H13.9713C12.5934 5.58168 11.2481 6.13519 10.2636 7.09761C8.69439 8.6251 8.20107 11.0433 9.03162 13.0742C9.55004 14.3419 10.5517 15.391 11.8023 15.9536C13.1309 16.5511 14.6728 16.5718 16.0165 16.0074C17.2821 15.4759 18.3081 14.4558 18.8586 13.1986C19.2922 12.2082 19.4205 11.0936 19.2328 10.0297L18.0822 10.889C18.0822 11.5109 17.9798 12.1179 17.7288 12.6902C17.305 13.6564 16.5167 14.4412 15.544 14.8504C14.51 15.2853 13.327 15.2694 12.3039 14.8087C11.3416 14.3752 10.573 13.5703 10.1733 12.5942C9.74486 11.548 9.75994 10.3455 10.2138 9.31059C10.6373 8.34505 11.4252 7.56068 12.3982 7.15135C13.6722 6.61538 15.1483 6.76884 16.2885 7.56161L17.3279 6.78521C16.3881 6.014 15.1875 5.58183 13.9723 5.58338ZM18.2012 7.68887C18.4552 8.0216 18.6701 8.38308 18.8418 8.76605L13.9724 12.4039L11.9373 11.111V9.55564L13.9724 10.8485L18.2012 7.68887Z" fill="white"/>
</svg>
