<svg width="10" height="12" viewBox="0 0 10 12" fill="none" xmlns="http://www.w3.org/2000/svg">
<path d="M0 2.6123L1.45329 5.20997V6.79447L0.00170011 9.38703L0 2.6123Z" fill="#5B57A2"/>
<path d="M5.57812 4.26401L6.93991 3.42936L9.72689 3.42676L5.57812 5.96832V4.26401Z" fill="#D90751"/>
<path d="M5.57204 2.59686L5.57974 6.03608L4.12305 5.14102V0L5.57204 2.59686Z" fill="#FAB718"/>
<path d="M9.7285 3.42731L6.94143 3.42992L5.57204 2.59686L4.12305 0L9.7285 3.42731Z" fill="#ED6F26"/>
<path d="M5.57974 9.40115V7.73255L4.12305 6.85449L4.12385 12.0006L5.57974 9.40115Z" fill="#63B22F"/>
<path d="M6.93844 8.57438L1.45319 5.20997L0 2.6123L9.72291 8.57098L6.93844 8.57438Z" fill="#1487C9"/>
<path d="M4.12305 12.0002L5.57874 9.40076L6.93712 8.57371L9.7216 8.57031L4.12305 12.0002Z" fill="#017F36"/>
<path d="M0 9.38677L4.13356 6.85461L2.74387 6.00195L1.45159 6.7942L0 9.38677Z" fill="#984995"/>
</svg>
