<svg width="56" height="22" viewBox="0 0 56 22" fill="none" xmlns="http://www.w3.org/2000/svg">
<g clip-path="url(#clip0_209_3242)">
<path d="M53.5348 0H2.46524C1.10373 0 0 1.10373 0 2.46524V19.5168C0 20.8783 1.10373 21.982 2.46524 21.982H53.5348C54.8963 21.982 56 20.8783 56 19.5168V2.46524C56 1.10373 54.8963 0 53.5348 0Z" fill="#FFDD2D"/>
<path d="M27.4055 10.5984C27.1283 10.4918 26.7657 10.4598 26.3712 10.4598H24.1745V9.7774H27.9493V8.60449H22.6284V13.6801H26.2325C26.7337 13.6801 27.1069 13.6374 27.3842 13.5308C27.9706 13.3068 28.3652 12.763 28.3652 12.0486C28.3652 11.3236 27.9919 10.8224 27.4055 10.5984ZM26.6377 12.3578C26.5524 12.3899 26.4351 12.4005 26.2858 12.4005H24.1745V11.5901H26.2858C26.4565 11.5901 26.595 11.6008 26.7017 11.6541C26.8296 11.7181 26.8936 11.8354 26.8936 11.9846C26.8936 12.1339 26.819 12.2939 26.6377 12.3578Z" fill="#333333"/>
<path d="M32.7004 8.60449H30.4399L28.3606 13.6801H30.1094L30.3972 12.9443H32.7431L33.0417 13.6801H34.7798L32.7004 8.60449ZM30.7811 11.8247L31.5169 9.7774H31.6341L32.3699 11.8247H30.7811Z" fill="#333333"/>
<path d="M36.7697 11.7928V13.6801H35.2236V8.60449H36.7697V10.4599H39.2542V8.60449H40.8004V13.6801H39.2542V11.7928H36.7697Z" fill="#333333"/>
<path d="M43.2478 11.7608V13.6801H41.7017V8.60449H43.2478V10.5132H43.6743L45.5404 8.60449H47.481L45.0072 11.0357L47.577 13.6801H45.519L43.6743 11.7608H43.2478Z" fill="#333333"/>
<path d="M7.40186 5.3418H19.7282V11.541C19.7282 13.1303 18.8804 14.5988 17.5042 15.3935L13.565 17.6681L9.62589 15.3935C8.24964 14.5988 7.40186 13.1303 7.40186 11.541V5.3418Z" fill="white"/>
<path fill-rule="evenodd" clip-rule="evenodd" d="M10.7847 8.60449V10.5326C11.0483 10.2349 11.5277 10.0333 12.0758 10.0333H12.6715V12.2747C12.6715 12.8711 12.5094 13.393 12.269 13.6801H14.8599C14.62 13.3927 14.4584 12.8714 14.4584 12.2759V10.0333H15.0541C15.6022 10.0333 16.0815 10.2349 16.3452 10.5326V8.60449H10.7847Z" fill="#333333"/>
</g>
<defs>
<clipPath id="clip0_209_3242">
<rect width="56" height="21.982" fill="white"/>
</clipPath>
</defs>
</svg>
