<svg width="57" height="22" viewBox="0 0 57 22" fill="none" xmlns="http://www.w3.org/2000/svg">
<path d="M0.5 4C0.5 1.79086 2.29086 0 4.5 0H52.6761C54.8853 0 56.6761 1.79086 56.6761 4V18C56.6761 20.2091 54.8853 22 52.6761 22H4.5C2.29086 22 0.5 20.2091 0.5 18V4Z" fill="#FFDD2D"/>
<path d="M28.5036 10.5934C28.2264 10.4868 27.8639 10.4548 27.4693 10.4548H25.2727V9.7724H29.0474V8.59949H23.7266V13.6751H27.3307C27.8319 13.6751 28.205 13.6324 28.4823 13.5257C29.0688 13.3018 29.4633 12.758 29.4633 12.0436C29.4633 11.3186 29.0901 10.8174 28.5036 10.5934ZM27.7359 12.3528C27.6506 12.3849 27.5333 12.3955 27.384 12.3955H25.2727V11.5851H27.384C27.5546 11.5851 27.6932 11.5958 27.7999 11.6491C27.9278 11.7131 27.9918 11.8304 27.9918 11.9796C27.9918 12.1289 27.9172 12.2888 27.7359 12.3528Z" fill="#333333"/>
<path d="M33.7988 8.59949H31.5383L29.459 13.6751H31.2078L31.4956 12.9393H33.8415L34.1401 13.6751H35.8782L33.7988 8.59949ZM31.8795 11.8197L32.6153 9.7724H32.7325L33.4683 11.8197H31.8795Z" fill="#333333"/>
<path d="M37.8683 11.7878V13.6751H36.3223V8.59949H37.8683V10.4549H40.3528V8.59949H41.899V13.6751H40.3528V11.7878H37.8683Z" fill="#333333"/>
<path d="M44.3469 11.7558V13.6751H42.8008V8.59949H44.3469V10.5082H44.7735L46.6395 8.59949H48.5801L46.1063 11.0307L48.6761 13.6751H46.6181L44.7735 11.7558H44.3469Z" fill="#333333"/>
<path d="M8.5 5.33679H20.8263V11.536C20.8263 13.1252 19.9785 14.5938 18.6023 15.3885L14.6632 17.6631L10.724 15.3885C9.34778 14.5938 8.5 13.1252 8.5 11.536V5.33679Z" fill="white"/>
<path fill-rule="evenodd" clip-rule="evenodd" d="M11.8828 8.59949V10.5276C12.1465 10.2298 12.6258 10.0283 13.174 10.0283H13.7696V12.2697C13.7696 12.866 13.6076 13.388 13.3672 13.6751H15.9581C15.7182 13.3877 15.5565 12.8664 15.5565 12.2709V10.0283H16.1522C16.7003 10.0283 17.1797 10.2298 17.4433 10.5276V8.59949H11.8828Z" fill="#333333"/>
</svg>
