<svg width="73" height="22" viewBox="0 0 73 22" fill="none" xmlns="http://www.w3.org/2000/svg">
<path d="M0 4C0 1.79086 1.79086 0 4 0H68.5535C70.7626 0 72.5535 1.79086 72.5535 4V18C72.5535 20.2091 70.7626 22 68.5535 22H4C1.79086 22 0 20.2091 0 18V4Z" fill="#8B3FFD"/>
<path d="M58.1137 11.0368C58.1137 9.46678 56.9257 8.19678 55.2477 8.19678C53.6028 8.19678 52.4316 9.41798 52.4316 11.096C52.4316 12.7824 53.636 14.012 55.3641 14.012C56.4605 14.012 57.3825 13.5216 57.9557 12.5248L56.7929 11.9848C56.5189 12.4832 55.9205 12.8072 55.3641 12.8072C54.6581 12.8072 53.844 12.2756 53.794 11.5364H58.0721C58.0993 11.3712 58.1132 11.2042 58.1137 11.0368ZM53.8188 10.5568C53.9188 9.80918 54.4337 9.31918 55.2561 9.31918C56.0701 9.31918 56.5685 9.79918 56.6349 10.5568H53.8188Z" fill="white"/>
<path d="M42.1012 8.1958C40.4148 8.1958 39.2188 9.409 39.2188 11.1202C39.2188 12.8146 40.4148 14.011 42.118 14.011C43.8292 14.011 45.0252 12.8146 45.0252 11.145C45.0252 9.4254 43.796 8.1958 42.1012 8.1958ZM42.118 12.7398C41.2704 12.7398 40.7472 12.1086 40.7472 11.1282C40.7472 10.1314 41.2788 9.4502 42.118 9.4502C42.9652 9.4502 43.4968 10.123 43.4968 11.1282C43.4968 12.117 42.9736 12.7398 42.118 12.7398Z" fill="white"/>
<path d="M36.0965 8.19736C35.4057 8.19736 34.8853 8.43336 34.3649 9.01856H34.1941C33.8445 8.49016 33.2741 8.19736 32.6341 8.19736C32.3145 8.19424 31.9988 8.26706 31.7129 8.40983C31.427 8.5526 31.1791 8.76124 30.9897 9.01856H30.8189L30.8105 9.01056V8.31136H29.3809V13.889H30.9257V11.0186C30.9257 10.0918 31.3161 9.54696 31.9909 9.54696C32.6169 9.54696 33.0233 10.0106 33.0233 10.7178V13.889H34.5761V11.0186C34.5761 10.0986 34.9665 9.54696 35.6497 9.54696C36.2673 9.54696 36.6657 10.0106 36.6657 10.7262V13.889H38.2189V10.539C38.2189 9.08376 37.4381 8.19736 36.0965 8.19736Z" fill="white"/>
<path d="M61.5482 11.9545H61.4378C61.4378 11.8553 60.7642 10.0889 60.3226 8.99446L60.0466 8.31006H58.4902L60.6982 13.9073L59.8282 16.0401H61.3738L64.5535 8.31206H62.9962L62.7422 8.89726L61.881 11.0281C61.6382 11.6233 61.5386 11.8993 61.5482 11.9545Z" fill="white"/>
<path d="M49.31 8.19727C48.6188 8.19727 48.0252 8.49807 47.6268 9.03487H47.464L47.448 9.02687V8.31127H46.0176V13.8889H47.5624V11.0349C47.5624 10.1245 48.0024 9.55487 48.7252 9.55487C49.4 9.55487 49.896 10.0589 49.896 10.8557V13.8885H51.4408V10.5229C51.4408 9.15687 50.5464 8.19727 49.31 8.19727Z" fill="white"/>
<path d="M18.8888 5C15.5511 5 12.8691 7.7 12.8691 11C12.8691 14.3272 15.5775 17 18.888 17C22.1984 17 24.9092 14.3 24.9092 11C24.9092 7.7 22.1992 5 18.8888 5ZM18.8888 13.2364C17.6576 13.2364 16.6456 12.2272 16.6456 11C16.6456 9.7728 17.6576 8.7636 18.8888 8.7636C20.12 8.7636 21.1324 9.7728 21.1324 11C21.1048 12.2272 20.12 13.2364 18.8888 13.2364Z" fill="white"/>
<path d="M12.8688 6.74316V15.4704H10.736L8 6.74316H12.8688Z" fill="white"/>
</svg>
