<svg width="200" height="235" viewBox="0 0 200 235" fill="none" xmlns="http://www.w3.org/2000/svg">
<g clip-path="url(#clip0_1638_19501)">
<path d="M136.785 137.144V140.228C126.041 150.818 114.415 162.538 107.006 169.505L106.826 169.623C104.404 171.857 100.814 173.383 97.6534 172.707C97.5913 172.694 97.5292 172.676 97.4609 172.663C94.778 171.993 92.2938 171.205 91.5982 168.531L91.1387 166.776C91.7473 169.015 94.0824 170.144 96.6411 170.69C99.8022 171.367 103.392 169.847 105.814 167.607L105.994 167.489C113.409 160.516 126.047 147.741 136.785 137.15M199.1 105.435C198.927 96.9535 199.721 87.3184 192.281 81.3561C190.195 79.6872 187.549 78.6635 184.897 78.5332H162.273V102.196C163.856 102.606 165.011 103.939 165.011 105.528C165.011 107.439 163.328 108.996 161.248 108.996C159.167 108.996 157.484 107.445 157.484 105.528C157.484 104.175 158.329 103.003 159.559 102.432V78.5332H120.557V78.589C123.458 78.5084 126.426 79.5569 128.712 81.3871C136.059 87.2749 135.276 96.7922 135.45 105.162C135.661 115.591 135.978 126.951 136.152 137.07H197.927C198.722 137.07 199.361 136.431 199.361 135.637C199.343 130.717 199.281 114.331 199.094 105.428L199.1 105.435Z" fill="url(#paint0_linear_1638_19501)"/>
<path d="M150.727 137.72C150.727 144.744 150.727 151.773 150.727 158.796C150.727 167.519 150.727 176.242 150.727 184.959C150.727 194.34 150.727 203.714 150.727 213.095C150.727 221.955 150.727 230.808 150.727 239.668C150.727 248.527 150.727 254.26 150.727 261.562V263.752C150.727 264.553 151.969 264.553 151.969 263.752C151.969 256.729 151.969 249.7 151.969 242.677C151.969 235.654 151.969 225.231 151.969 216.514C151.969 207.133 151.969 197.758 151.969 188.378C151.969 179.518 151.969 170.665 151.969 161.805C151.969 154.509 151.969 147.213 151.969 139.91V137.72C151.969 136.92 150.727 136.92 150.727 137.72Z" fill="#1F1F1F"/>
<path d="M162.08 137.72V264.404C162.08 265.204 163.322 265.204 163.322 264.404V137.72C163.322 136.92 162.08 136.92 162.08 137.72Z" fill="#1F1F1F"/>
<path d="M162.335 79.1529H185.345C186.146 79.1529 186.146 77.9121 185.345 77.9121H162.335C161.534 77.9121 161.534 79.1529 162.335 79.1529Z" fill="#1F1F1F"/>
<path d="M120.556 79.1529C130.592 79.1529 140.628 79.1529 150.664 79.1529H159.477C160.278 79.1529 160.278 77.9121 159.477 77.9121C149.441 77.9121 139.405 77.9121 129.369 77.9121C126.431 77.9121 123.493 77.9121 120.556 77.9121C119.755 77.9121 119.755 79.1529 120.556 79.1529Z" fill="#1F1F1F"/>
<path d="M136.772 136.406C136.598 126.392 136.307 116.379 136.095 106.365C135.946 99.3235 136.667 91.3883 132.823 85.1097C130.829 81.8525 127.668 79.2653 123.923 78.3409C120.178 77.4165 116.278 78.2416 113.44 80.8722C110.863 83.2608 109.447 86.729 108.987 90.1599C108.732 92.077 108.757 94.0003 108.763 95.9298C108.776 98.4239 108.801 100.918 108.838 103.418C109.012 114.642 109.428 125.853 109.695 137.076C109.714 137.87 110.956 137.876 110.937 137.076C110.707 127.565 110.378 118.06 110.173 108.549C110.068 103.753 109.999 98.9512 109.999 94.1554C109.999 90.7245 110.465 87.2811 112.272 84.2907C114.179 81.139 117.396 79.135 121.135 79.2157C125.097 79.3087 128.705 81.5237 131.021 84.663C135.195 90.3212 134.71 97.8593 134.816 104.523C134.978 115.157 135.344 125.784 135.53 136.412C135.543 137.213 136.785 137.213 136.772 136.412V136.406Z" fill="#1F1F1F"/>
<path d="M109.881 136.635C106.142 141.319 101.788 145.464 97.9007 150.017C95.7394 152.549 93.4664 155.155 91.7399 158.015C90.1936 160.577 89.0943 163.921 90.4047 166.825C91.6282 169.536 94.9197 171.31 97.8075 171.453C101.031 171.614 103.912 170.007 106.303 168.016C108.409 166.266 110.321 164.2 112.284 162.289C114.687 159.944 117.078 157.58 119.463 155.217C125.388 149.341 131.282 143.441 137.225 137.584C137.796 137.02 136.914 136.145 136.349 136.709C126.922 146.01 117.637 155.459 108.092 164.635C106.148 166.502 104.248 168.481 101.689 169.505C98.6211 170.733 95.2364 170.299 92.7895 167.985C90.3426 165.671 90.9015 162.203 92.3361 159.504C93.8763 156.6 96.1555 154.081 98.236 151.556C102.229 146.711 106.85 142.417 110.769 137.51C111.259 136.889 110.39 136.008 109.893 136.635H109.881Z" fill="#1F1F1F"/>
<path d="M90.3307 166.458C90.6847 167.811 90.9456 169.163 91.8461 170.28C93.1627 171.918 95.2991 172.78 97.2864 173.252C101.789 174.325 105.72 171.577 108.807 168.648C116.16 161.656 123.308 154.453 130.512 147.306C131.599 146.227 132.692 145.147 133.779 144.067C134.866 142.988 136.101 141.927 137.126 140.761C137.548 140.277 137.412 139.6 137.412 138.986V137.137C137.412 136.337 136.17 136.337 136.17 137.137V140.221L136.35 139.78C129.754 146.282 123.202 152.84 116.601 159.342C113.85 162.047 111.098 164.752 108.304 167.414C105.633 169.958 102.547 172.557 98.5844 172.216C96.6654 172.048 94.411 171.192 93.0633 169.79C92.0883 168.779 91.8709 167.432 91.5294 166.123C91.3306 165.354 90.132 165.677 90.3307 166.452V166.458Z" fill="#1F1F1F"/>
<path d="M110.315 137.689H114.719C118.538 137.689 122.357 137.689 126.177 137.689C131.474 137.689 136.765 137.689 142.063 137.689C147.957 137.689 153.85 137.689 159.744 137.689C165.358 137.689 170.972 137.689 176.593 137.689H189.976C192.405 137.689 194.833 137.689 197.261 137.689C198.422 137.689 199.615 137.41 199.925 136.058C200.056 135.493 199.975 134.854 199.975 134.277C199.975 133.619 199.975 132.962 199.969 132.304C199.963 130.561 199.95 128.817 199.944 127.074C199.901 118.984 199.751 110.9 199.683 102.809C199.646 98.6216 199.64 94.3469 198.571 90.2707C197.503 86.1946 195.15 82.3914 191.541 80.0586C189.554 78.7743 187.256 78.0484 184.896 77.9057C184.095 77.8561 184.101 79.097 184.896 79.1466C189.691 79.4258 193.752 82.5713 195.926 86.7467C197.832 90.4072 198.249 94.6385 198.385 98.7022C198.646 106.706 198.627 114.734 198.683 122.743C198.708 126.249 198.727 129.76 198.739 133.266C198.739 134.178 199.149 136.306 197.895 136.442C197.783 136.455 197.665 136.442 197.553 136.442C195.435 136.442 193.324 136.442 191.206 136.442C187.045 136.442 182.89 136.442 178.729 136.442C173.326 136.442 167.917 136.442 162.514 136.442C156.732 136.442 150.95 136.442 145.168 136.442C139.809 136.442 134.449 136.442 129.096 136.442C124.966 136.442 120.836 136.442 116.712 136.442C114.675 136.442 112.632 136.411 110.595 136.442C110.502 136.442 110.415 136.442 110.322 136.442C109.52 136.442 109.52 137.683 110.322 137.683L110.315 137.689Z" fill="#1F1F1F"/>
<path d="M113.874 136.809C112.979 125.114 112.799 113.345 112.663 101.619C112.632 98.7031 112.607 95.7809 112.613 92.8649C112.613 92.0646 111.371 92.0646 111.371 92.8649C111.346 104.603 111.594 116.348 112.122 128.074C112.253 130.99 112.408 133.899 112.632 136.809C112.694 137.603 113.936 137.61 113.874 136.809Z" fill="#1F1F1F"/>
<path d="M133.953 136.809C133.208 127.043 133.103 117.216 132.885 107.432C132.842 105.322 132.78 103.219 132.761 101.11C132.736 98.4295 132.742 95.7431 132.339 93.0877C131.538 87.7396 128.246 82.435 122.52 81.4858C119.44 80.9771 116.359 81.9883 114.322 84.377C112.285 86.7656 111.484 89.6567 111.422 92.6099C111.403 93.4103 112.646 93.4103 112.664 92.6099C112.72 90.0662 113.447 87.4294 115.061 85.4193C116.825 83.2354 119.539 82.2241 122.309 82.7018C125.079 83.1796 127.42 84.9043 128.948 87.2061C130.333 89.2969 130.972 91.7662 131.252 94.2292C131.531 96.6923 131.494 99.3229 131.531 101.867C131.556 103.784 131.606 105.695 131.649 107.612C131.755 112.451 131.879 117.284 132.034 122.123C132.19 126.963 132.345 131.92 132.718 136.802C132.78 137.597 134.022 137.603 133.96 136.802L133.953 136.809Z" fill="#1F1F1F"/>
<path d="M159.328 101.804C157.924 102.356 156.987 103.765 156.819 105.241C156.651 106.718 157.452 108.343 158.781 109.1C160.228 109.926 162.11 109.876 163.545 109.051C164.979 108.226 165.781 106.706 165.594 105.105C165.389 103.374 164.004 101.99 162.328 101.612C161.551 101.438 161.216 102.636 161.998 102.809C163.011 103.039 163.973 103.752 164.278 104.782C164.582 105.812 164.191 107.041 163.309 107.729C161.489 109.15 158.21 108.405 158.055 105.831C157.993 104.739 158.657 103.405 159.67 103.002C159.98 102.878 160.197 102.586 160.104 102.239C160.024 101.941 159.657 101.68 159.34 101.804H159.328Z" fill="#1F1F1F"/>
<path d="M162.763 105.459V58.9149C162.763 58.7846 162.781 58.6357 162.763 58.5054C162.688 57.9409 162.048 57.5252 161.539 57.3701C160.831 57.1529 160.03 57.3018 159.465 57.7795C158.85 58.2945 158.993 58.9149 158.993 59.6346V104.838C158.993 105.781 159.291 106.824 160.229 107.27C160.794 107.537 161.489 107.45 161.974 107.053C162.421 106.687 162.558 106.154 162.744 105.633C163.011 104.876 161.806 104.553 161.545 105.304C161.378 105.788 161.036 106.631 160.508 105.881C160.396 105.719 160.353 105.515 160.247 105.347C160.024 105.006 160.341 105.409 160.235 105.446C160.266 105.434 160.235 104.969 160.235 104.931V90.6928C160.235 81.796 160.235 72.893 160.235 63.9962V59.7339C160.235 59.3988 160.254 59.0514 160.235 58.7164C160.235 58.6543 160.223 58.5799 160.235 58.5178C160.142 58.9956 160.285 58.6419 160.589 58.5427C161.042 58.4 161.409 58.6171 161.707 58.9397L161.527 58.4992V105.453C161.527 106.253 162.769 106.253 162.769 105.453L162.763 105.459Z" fill="#1F1F1F"/>
<path d="M162.664 71.1558C169.017 71.1558 175.364 71.1558 181.718 71.1558C179.867 69.1518 177.451 67.2161 175.6 65.2122C177.451 63.2082 179.867 61.2725 181.718 59.2686C175.364 59.2686 169.017 59.2686 162.664 59.2686" fill="#1F1F1F"/>
<path d="M162.663 71.7759C169.017 71.7759 175.364 71.7759 181.717 71.7759C182.27 71.7759 182.518 71.1058 182.158 70.715C180.214 68.6366 177.984 66.8498 176.041 64.7714V65.6461C177.984 63.5677 180.214 61.7809 182.158 59.7025C182.518 59.3179 182.27 58.6416 181.717 58.6416C175.364 58.6416 169.017 58.6416 162.663 58.6416C161.862 58.6416 161.862 59.8824 162.663 59.8824C169.017 59.8824 175.364 59.8824 181.717 59.8824L181.276 58.8215C179.332 60.8999 177.103 62.6867 175.159 64.7651C174.923 65.0195 174.923 65.3918 175.159 65.6399C177.103 67.7184 179.332 69.5052 181.276 71.5836L181.717 70.5226C175.364 70.5226 169.017 70.5226 162.663 70.5226C161.862 70.5226 161.862 71.7635 162.663 71.7635V71.7759Z" fill="#1F1F1F"/>
<path d="M131.257 100.235C129.531 100.62 127.779 100.806 126.016 100.781C125.183 100.769 124.345 100.713 123.519 100.607C122.693 100.502 121.879 100.216 121.072 100.272C118.234 100.471 119.228 104.361 119.538 106.067C120.824 113.022 121.687 120.057 122.128 127.118C122.339 130.499 122.103 134.197 123.767 137.268C124.146 137.969 125.221 137.342 124.842 136.641C123.432 134.029 123.593 130.902 123.426 128.024C123.239 124.791 122.966 121.565 122.606 118.351C122.246 115.137 121.811 112.017 121.289 108.871C121.022 107.277 120.712 105.688 120.426 104.094C120.283 103.281 120.066 101.488 121.32 101.507C122.14 101.519 122.991 101.792 123.817 101.885C124.643 101.978 125.481 102.028 126.314 102.028C128.09 102.028 129.86 101.823 131.592 101.432C132.375 101.259 132.04 100.061 131.263 100.235H131.257Z" fill="#1F1F1F"/>
<path d="M120.831 113.971C119.645 114.256 118.459 114.535 117.272 114.827C116.533 115.007 115.776 115.261 115.689 116.136C115.583 117.178 115.875 118.382 115.981 119.424C116.099 120.653 116.223 121.881 116.341 123.109C116.577 125.517 116.813 127.918 117.049 130.325C117.167 131.553 117.291 132.782 117.409 134.01C117.508 135.04 117.552 136.107 117.918 137.088C118.198 137.826 119.402 137.509 119.117 136.759C118.763 135.828 118.732 134.835 118.632 133.855C118.527 132.782 118.421 131.709 118.316 130.635C118.111 128.538 117.906 126.441 117.701 124.344C117.496 122.247 117.291 120.15 117.086 118.053C117.043 117.588 116.875 116.98 116.937 116.521C116.999 116.062 117.465 116.074 117.9 115.968L121.16 115.187C121.936 115.001 121.607 113.803 120.831 113.989V113.971Z" fill="#1F1F1F"/>
<path d="M41.9643 44.1549C46.3861 41.1706 50.8949 38.3291 55.503 35.6303C56.0992 35.2829 56.6954 34.9354 57.2978 34.588C57.5462 34.4453 57.8443 34.3212 58.0679 34.1475C57.9064 34.2778 58.4405 33.8931 58.2977 33.9428C58.6579 33.8311 59.2603 33.9676 59.6329 33.98C60.6328 34.0048 61.6327 34.0358 62.6263 34.0606C63.1666 34.073 63.4461 33.372 63.0673 32.9997C62.5332 32.4786 61.9929 31.9574 61.4588 31.4363L61.3346 32.4103C62.558 31.7775 63.7007 30.9399 64.8559 30.1954C66.1911 29.333 67.5139 28.4644 68.8367 27.5897C69.4702 27.1678 70.1037 26.7521 70.7371 26.3302C71.0476 26.1255 71.3582 25.9145 71.6625 25.7098C72.0475 25.4492 72.3332 25.1328 72.7617 25.4306C73.066 25.6415 73.3269 26.1565 73.5504 26.4543C73.774 26.7521 74.0224 27.0747 74.2522 27.3849C74.749 28.0488 75.2335 28.7188 75.7054 29.3951C77.4816 31.9326 79.1274 34.5073 81.152 36.8649C82.1518 38.0313 83.2014 39.1543 84.2944 40.2338C84.8161 40.755 85.3502 41.2637 85.8905 41.7662C86.2569 42.1013 86.4494 42.275 86.052 42.6845C85.7911 42.9575 85.4496 43.1808 85.1577 43.4166C80.4191 47.2508 75.0223 50.0551 70.0229 53.5046C67.4642 55.2728 64.9614 57.1278 62.3965 58.8774C61.1358 59.7398 59.8565 60.5774 58.5461 61.3653C57.9126 61.75 57.2729 62.1222 56.6209 62.4759C56.1116 62.7489 56.0122 62.7489 55.6334 62.2835C55.3539 61.9423 55.0993 61.5887 54.8323 61.2412C52.6214 58.3811 50.3732 55.552 48.0691 52.7725C46.914 51.3766 45.703 50.0116 44.5975 48.5723C44.082 47.9022 43.5914 47.2073 43.1132 46.5063C42.7779 46.0037 41.4923 44.5581 42.0823 44.0556C42.6723 43.5531 41.809 42.6659 41.2066 43.1808C39.8776 44.31 41.1694 45.8176 41.8836 46.8971C42.84 48.3365 43.8833 49.7076 44.995 51.0291C47.3798 53.8831 49.7397 56.7494 52.0376 59.6716C52.6151 60.4037 53.1865 61.142 53.7579 61.8803C54.205 62.4573 54.6397 63.2824 55.2608 63.6919C55.739 64.0083 56.2917 64.0083 56.8072 63.7912C57.6269 63.4437 58.4095 62.9102 59.1733 62.4511C62.1543 60.658 64.9739 58.6107 67.8058 56.5943C70.6377 54.5779 73.6374 52.5864 76.6867 50.7685C79.5559 49.0562 82.3444 47.1887 84.9838 45.1475C85.6048 44.6636 86.2383 44.1797 86.8283 43.6647C87.3189 43.2366 87.6356 42.7465 87.5301 42.0703C87.4245 41.394 86.8345 40.9783 86.3625 40.5316C85.7228 39.9298 85.0956 39.3156 84.4807 38.6828C81.978 36.1142 79.7981 33.3347 77.8294 30.3443C76.7115 28.6382 75.5005 26.994 74.2584 25.3748C73.7864 24.7605 73.3517 24.0408 72.4885 24.016C71.7121 23.9974 71.0538 24.624 70.4452 25.0335C68.7374 26.1751 67.0233 27.3105 65.2968 28.4334C63.7877 29.4137 62.291 30.5242 60.6887 31.3494C60.3347 31.5355 60.285 32.0567 60.5645 32.3235C61.0986 32.8446 61.6389 33.3658 62.173 33.8869L62.6139 32.826C61.5706 32.795 60.521 32.7702 59.4776 32.7391C59.0864 32.7267 58.6517 32.6585 58.2666 32.7081C57.8257 32.764 57.422 33.0866 57.0432 33.3037C56.4408 33.6449 55.8446 33.9924 55.2484 34.3398C50.5098 37.1007 45.8706 40.0167 41.3308 43.0877C40.6725 43.5344 41.2936 44.6078 41.9581 44.1611L41.9643 44.1549Z" fill="#1F1F1F"/>
<path d="M42.6093 36.9147C43.0813 32.5656 40.8021 28.5204 38.9514 24.7545C38.0199 22.8498 37.0448 20.9575 35.871 19.1955C34.6973 17.4335 33.3434 15.9135 31.9088 14.4183C30.1016 12.5446 28.1205 10.671 25.8102 9.42392C24.1893 8.54292 22.0839 7.91009 20.3264 8.8097C18.5689 9.70931 18.6868 12.3399 18.8483 13.9902C19.0719 16.2299 19.8234 18.3642 21.0592 20.2378L21.91 19.3879C20.7798 18.5999 19.283 18.7054 18.1279 19.3879C16.7803 20.1944 16.1157 21.7082 15.9046 23.2159C15.5009 26.0946 16.3517 30.2204 19.9103 30.4189L19.5998 29.2649C16.5939 30.6361 16.9728 35.0845 17.9851 37.5848C18.9974 40.0851 21.5374 43.4602 24.6178 41.7044L23.6862 41.1708C23.916 43.4788 24.9904 45.6689 26.7852 47.1703C28.7912 48.8516 31.3499 49.441 33.9148 49.0626C34.7035 48.9447 34.3681 47.7473 33.5856 47.8651C29.3377 48.498 25.3568 45.4641 24.9345 41.1708C24.891 40.7117 24.4377 40.3829 24.003 40.6372C21.5623 42.0208 19.6495 38.6085 19.0036 36.772C18.3577 34.9356 17.9478 31.3868 20.2332 30.3445C20.8357 30.0715 20.4817 29.2215 19.9227 29.1905C17.3081 29.0478 16.9045 25.6913 17.1032 23.6874C17.215 22.5892 17.5752 21.3856 18.4757 20.6783C19.2955 20.0331 20.4133 19.8594 21.289 20.4736C21.7983 20.8272 22.469 20.1324 22.1398 19.6236C21.0779 18.0105 20.3637 16.1865 20.1277 14.2632C19.9724 13.0099 19.6308 10.3297 21.1772 9.80858C22.7236 9.28742 24.2762 9.95748 25.5618 10.7144C27.6174 11.918 29.3874 13.5931 31.0331 15.3055C32.3932 16.7201 33.7098 18.1905 34.8029 19.8284C35.8027 21.3298 36.6536 22.9243 37.4609 24.5373C39.3613 28.3405 41.8455 32.5159 41.3673 36.9209C41.2803 37.7151 42.5224 37.7089 42.6093 36.9209V36.9147Z" fill="#1F1F1F"/>
<path d="M60.0233 30.3134C60.3152 25.5299 56.3902 21.398 51.5771 21.5531C46.0809 21.7268 43.044 27.1555 41.1436 31.6349C40.8331 32.3608 41.9075 32.9936 42.218 32.2615C43.8451 28.4273 46.4038 23.284 51.0927 22.8249C55.44 22.403 59.0482 25.9953 58.7812 30.3196C58.7315 31.1199 59.9736 31.1137 60.0233 30.3196V30.3134Z" fill="#1F1F1F"/>
<path d="M48.7894 54.8879C44.1129 59.5783 36.8965 59.7458 30.7109 59.0137C24.5253 58.2816 18.0354 56.0667 12.5765 52.6172C11.1046 51.6865 9.59549 50.6877 8.31615 49.4903C7.77584 48.9815 6.84428 48.0633 6.93122 47.2381C7.01817 46.413 8.31615 46.4812 8.8875 46.4936C9.50233 46.506 9.73833 45.6374 9.19802 45.3396C7.11133 44.1857 5.08673 42.8518 3.54034 41.0029C2.10574 39.2843 0.851233 36.7158 1.35428 34.4203C1.95048 31.7152 5.34136 32.9809 7.03059 33.775C9.10487 34.7491 11.0177 36.0582 13.0236 37.1625C15.0296 38.2669 17.0356 39.1789 19.2154 39.8862C19.9793 40.1343 20.3022 38.9369 19.5446 38.6887C17.2343 37.938 15.1352 36.9205 13.0236 35.7355C10.7879 34.4823 8.65772 32.9747 6.23566 32.1061C4.15517 31.3616 1.27975 31.0204 0.323348 33.5455C-0.546109 35.841 0.453767 38.6639 1.72069 40.612C3.38508 43.1682 5.94377 44.9488 8.57077 46.4068L8.88129 45.2528C7.65163 45.2218 6.01208 45.4823 5.72019 46.9155C5.39725 48.5162 6.98091 50.0362 8.08636 50.9358C10.9369 53.25 14.1353 55.1609 17.4889 56.6499C24.0409 59.5535 31.5555 61.1107 38.7285 60.4221C42.7963 60.0312 46.7151 58.7035 49.6464 55.7627C50.2116 55.1981 49.3359 54.3171 48.7707 54.8879H48.7894Z" fill="#1F1F1F"/>
<path d="M25.8666 58.6915C25.0468 59.7711 24.0655 60.7513 22.9911 61.5889C22.4695 61.9984 21.9167 62.3644 21.3454 62.7057C21.2088 62.7863 21.0349 62.8546 20.9107 62.9538C20.8361 62.9911 20.861 62.9849 20.9728 62.9414C20.9045 62.9476 20.8423 62.96 20.774 62.9662C20.6622 62.9973 20.5505 63.0469 20.4697 63.1338C20.0971 63.506 20.302 64.1016 20.774 64.2505C21.1777 64.3746 21.5379 64.0396 21.5628 63.6549V63.6363C21.5814 63.3013 21.2647 63.0159 20.9417 63.0159C20.5939 63.0159 20.3393 63.3013 20.3207 63.6363V63.6549C20.5815 63.4564 20.8423 63.2578 21.1032 63.0593H21.0846C21.1777 63.1089 21.2647 63.1586 21.3578 63.2144L21.333 63.1896L21.4944 63.4626L21.482 63.4316L21.4199 63.9093L21.4385 63.8845L21.0659 64.1699C20.979 64.1823 21.2274 64.1637 21.2647 64.1512C21.3454 64.1264 21.4199 64.083 21.4944 64.0458C21.6435 63.9651 21.7863 63.8845 21.9292 63.7976C22.2024 63.6363 22.4757 63.4626 22.7427 63.2889C23.283 62.929 23.7985 62.5382 24.2953 62.1225C25.2828 61.2911 26.1585 60.3481 26.9348 59.3182C27.1397 59.0514 26.9782 58.6233 26.7112 58.4682C26.3945 58.2821 26.0653 58.4248 25.8604 58.6915H25.8666Z" fill="#1F1F1F"/>
<path d="M22.5637 65.3798C22.9239 64.9082 23.2344 64.3995 23.4829 63.8597C23.6195 63.5681 23.7437 63.2703 23.8493 62.9663C23.9611 62.6499 24.1225 62.259 24.0294 61.924C23.9611 61.6696 23.7561 61.4711 23.5015 61.3905C23.3338 61.3408 23.1537 61.3408 22.9736 61.3408C22.6569 61.3408 22.3339 61.3408 22.0172 61.3656C21.3279 61.4029 20.6323 61.4897 19.9554 61.6138C19.6324 61.6696 19.4275 62.0791 19.5206 62.3769C19.6324 62.7182 19.9429 62.8733 20.2845 62.8112C20.4336 62.7864 20.5764 62.7616 20.7254 62.7368C20.7875 62.7244 20.8496 62.7182 20.9118 62.7057C21.0546 62.6871 20.8683 62.7057 20.9987 62.6933C21.272 62.6623 21.5452 62.6313 21.8247 62.6127C22.1042 62.5941 22.3774 62.5817 22.6507 62.5755C22.7997 62.5755 22.9488 62.5755 23.0978 62.5755C23.1475 62.5755 23.2841 62.6065 23.1227 62.5692C22.9674 61.9985 22.8618 61.8372 22.8121 62.0853C22.8059 62.1101 22.7997 62.1412 22.7873 62.166C22.719 62.4079 22.6445 62.6437 22.5513 62.8733C22.5265 62.9353 22.5016 62.9973 22.4768 63.0594C22.5202 62.9601 22.4581 63.0966 22.4519 63.1214C22.4023 63.2331 22.3464 63.3448 22.2905 63.4564C22.0607 63.9094 21.7936 64.3437 21.4831 64.7469C21.2844 65.0075 21.4334 65.4542 21.7067 65.5969C22.0358 65.7706 22.3464 65.6527 22.5575 65.3736L22.5637 65.3798Z" fill="#1F1F1F"/>
<path d="M33.2069 59.8207C32.9088 60.6024 32.3188 61.2786 31.7412 61.868C31.0767 62.5505 30.3501 63.1833 29.5924 63.7603C28.0957 64.8895 26.4624 65.8201 24.8166 66.7135C24.1149 67.0982 24.7421 68.1653 25.4439 67.7868C27.2201 66.819 28.9714 65.8077 30.5737 64.5607C32.0766 63.3943 33.7037 61.9797 34.4055 60.1557C34.6912 59.4112 33.4926 59.0886 33.2069 59.8269V59.8207Z" fill="#1F1F1F"/>
<path d="M26.7046 68.9039C27.2759 68.3207 27.8038 67.6941 28.282 67.0302C28.5056 66.72 28.7167 66.4036 28.9155 66.0748C29.1701 65.6529 29.3129 65.1503 28.9155 64.7533C28.6174 64.4617 28.1889 64.4368 27.7976 64.4927C27.3691 64.5485 26.9344 64.6168 26.512 64.7036C25.6861 64.8711 24.8787 65.1007 24.09 65.3799L24.5682 66.5153C24.6303 66.478 24.6862 66.4408 24.7483 66.4036C25.034 66.2237 25.1458 65.8514 24.9719 65.5536C24.798 65.2558 24.4067 65.1503 24.121 65.3303C24.0589 65.3675 24.003 65.4047 23.9409 65.4419C23.6801 65.6032 23.5621 65.9321 23.6863 66.2175C23.8043 66.4842 24.121 66.6828 24.4191 66.5773C25.0837 66.3415 25.7606 66.143 26.4437 65.9817C26.7853 65.901 27.1331 65.839 27.4809 65.7832C27.6113 65.7645 27.7666 65.7397 27.8783 65.7211C27.9404 65.7149 28.0025 65.7025 28.0647 65.7025C28.1019 65.7025 28.1392 65.7025 28.1764 65.7025C28.1081 65.6901 28.0957 65.6901 28.1454 65.7025C28.1889 65.7149 28.1764 65.7087 28.1143 65.6839C28.0088 65.6219 27.9591 65.535 27.9715 65.4233C27.9404 65.231 27.9715 65.2372 27.8908 65.3799C27.81 65.5102 27.7293 65.6405 27.6486 65.7708C27.4685 66.0499 27.2759 66.3229 27.0834 66.5835C26.717 67.0736 26.2761 67.57 25.8351 68.0229C25.2762 68.5937 26.1518 69.4685 26.7108 68.8977L26.7046 68.9039Z" fill="#1F1F1F"/>
<path d="M50.0249 28.0676C50.3168 28.9052 51.062 29.5194 51.9439 29.6373C52.8258 29.7552 53.7325 29.3891 54.3287 28.7315C54.5461 28.4895 54.5833 28.0862 54.3287 27.8567C54.0927 27.6395 53.6828 27.6023 53.453 27.8567C53.4034 27.9125 53.3475 27.9684 53.2916 28.018C53.2605 28.049 53.2295 28.0738 53.1922 28.1049C53.2295 28.0676 53.2481 28.0676 53.1922 28.1049C53.068 28.1917 52.9314 28.2662 52.7947 28.3344C52.9127 28.2786 52.8072 28.3282 52.7761 28.3344C52.7451 28.3468 52.714 28.3592 52.6767 28.3654C52.6022 28.3903 52.5277 28.4027 52.4532 28.4213C52.2979 28.4523 52.5339 28.4213 52.4408 28.4213C52.3973 28.4213 52.3538 28.4275 52.3165 28.4275C52.242 28.4275 52.1675 28.4275 52.0868 28.4213C51.9998 28.4213 52.1923 28.4461 52.1116 28.4213C52.0743 28.4089 52.0309 28.4027 51.9936 28.3965C51.9253 28.3778 51.857 28.353 51.7887 28.3344C51.7079 28.3096 51.8818 28.384 51.8073 28.3344C51.7762 28.3158 51.739 28.2972 51.7017 28.2786C51.6396 28.2414 51.5837 28.2041 51.5216 28.1607C51.4533 28.1173 51.5961 28.2289 51.534 28.1731C51.5092 28.1483 51.4719 28.1235 51.4471 28.0924C51.4222 28.0676 51.4036 28.049 51.3788 28.0242C51.3788 28.0242 51.2794 27.9063 51.3353 27.9808C51.385 28.0428 51.3229 27.9622 51.3167 27.9498C51.298 27.9187 51.2732 27.8815 51.2546 27.8505C51.2421 27.8257 51.2235 27.7946 51.2111 27.7698C51.1428 27.6333 51.2546 27.8939 51.2049 27.745C51.0993 27.441 50.7764 27.2052 50.441 27.3107C50.1367 27.41 49.8945 27.745 50.0063 28.0738L50.0249 28.0676Z" fill="#1F1F1F"/>
<path d="M58.9674 30.7477C60.0108 31.821 61.1224 32.8261 62.1906 33.8808L62.6316 32.8199C61.1224 32.6772 59.6009 32.7764 58.0917 32.6275C57.7564 32.5965 57.4707 32.9377 57.4707 33.2479C57.4707 33.6078 57.7564 33.8373 58.0917 33.8684C59.6009 34.0111 61.1224 33.9118 62.6316 34.0607C63.1843 34.1165 63.4265 33.3534 63.0725 32.9998C62.0043 31.9451 60.8926 30.9462 59.8493 29.8667C59.6133 29.6247 59.2034 29.6309 58.9736 29.8667C58.7438 30.1024 58.7376 30.4995 58.9736 30.7414L58.9674 30.7477Z" fill="#1F1F1F"/>
<path d="M41.3687 44.7136C42.0891 45.4705 43.9087 45.6443 44.8403 45.8862C48.1567 46.7548 51.5351 47.4373 54.926 47.9522C58.6647 48.523 64.0242 49.8135 67.7194 48.2438C70.9426 46.8789 71.986 42.871 72.5698 39.7813C73.1535 36.6916 73.5386 33.695 73.6814 30.6425C73.756 29.0604 74.2404 26.4423 73.4827 24.947C73.1598 24.3018 72.1971 24.8664 72.5201 25.5116C73.2405 26.9386 72.607 30.1462 72.5077 31.6662C72.3338 34.2844 71.9798 36.9149 71.4954 39.4959C70.924 42.5049 69.9862 46.4198 66.6823 47.4124C62.7884 48.585 57.3605 47.2635 53.5535 46.6183C51.1066 46.2026 48.6721 45.7001 46.2625 45.1107C45.3371 44.8811 42.853 44.6702 42.1636 43.9381C41.6668 43.4169 40.8781 44.2049 41.3749 44.726L41.3687 44.7136Z" fill="#1F1F1F"/>
<path d="M78.7849 7.67458C75.5804 8.67967 76.4622 13.5003 77.8347 15.6408C80.3562 19.5618 86.1381 16.1061 87.5665 12.8985C89.4793 8.61762 85.7344 3.66667 82.4242 1.27185C78.0645 -1.87988 72.6987 1.43936 69.4631 4.62212C65.6872 8.32603 63.2775 13.3824 64.1097 18.7367C64.2339 19.5246 65.4263 19.1896 65.3083 18.4079C64.6935 14.4372 66.1468 10.5223 68.6061 7.42642C71.0654 4.33052 74.6985 1.11674 78.7911 1.27185C80.9834 1.3525 82.5236 2.8229 83.9272 4.34913C85.3307 5.87537 86.461 7.68699 86.7591 9.7592C87.0261 11.6143 86.2685 13.1591 84.896 14.3813C83.6166 15.5229 81.2505 16.8816 79.5861 15.74C78.5427 15.0266 78.1142 13.4321 77.9403 12.2533C77.7664 11.0745 77.7726 9.30009 79.1203 8.872C79.878 8.63624 79.555 7.43262 78.7911 7.67458H78.7849Z" fill="#1F1F1F"/>
</g>
<defs>
<linearGradient id="paint0_linear_1638_19501" x1="199.361" y1="78.5342" x2="84.9586" y2="81.2171" gradientUnits="userSpaceOnUse">
<stop stop-color="#00CFFF"/>
<stop offset="1" stop-color="#176BED"/>
</linearGradient>
<clipPath id="clip0_1638_19501">
<rect width="200" height="235" fill="white"/>
</clipPath>
</defs>
</svg>
